<svg width="512" height="512" viewBox="0 0 512 512" fill="none" xmlns="http://www.w3.org/2000/svg">
<rect width="512" height="512" fill="#1E1E1E"/>
<rect width="512" height="512" fill="white"/>
<path d="M115 138C115 129.716 121.716 123 130 123H311C319.284 123 326 129.716 326 138V410C326 418.284 319.284 425 311 425H130C121.716 425 115 418.284 115 410V138Z" fill="url(#paint0_linear_0_1)"/>
<g filter="url(#filter0_d_0_1)">
<path d="M175 109C175 100.716 181.716 94 190 94H371C379.284 94 386 100.716 386 109V381C386 389.284 379.284 396 371 396H190C181.716 396 175 389.284 175 381V109Z" fill="url(#paint1_linear_0_1)"/>
</g>
<g filter="url(#filter1_d_0_1)">
<path d="M175 109C175 100.716 181.716 94 190 94H371C379.284 94 386 100.716 386 109V129C386 137.284 379.284 144 371 144H190C181.716 144 175 137.284 175 129V109Z" fill="url(#paint2_linear_0_1)"/>
</g>
<path d="M237.896 228.696C238.152 221.848 240.392 216.568 244.616 212.856C248.84 209.144 254.568 207.288 261.8 207.288C266.6 207.288 270.696 208.12 274.088 209.784C277.544 211.448 280.136 213.72 281.864 216.6C283.656 219.48 284.552 222.712 284.552 226.296C284.552 230.52 283.496 233.976 281.384 236.664C279.272 239.288 276.808 241.08 273.992 242.04V242.424C277.64 243.64 280.52 245.656 282.632 248.472C284.744 251.288 285.8 254.904 285.8 259.32C285.8 263.288 284.872 266.808 283.016 269.88C281.224 272.888 278.568 275.256 275.048 276.984C271.592 278.712 267.464 279.576 262.664 279.576C254.984 279.576 248.84 277.688 244.232 273.912C239.688 270.136 237.288 264.44 237.032 256.824H252.968C253.032 259.64 253.832 261.88 255.368 263.544C256.904 265.144 259.144 265.944 262.088 265.944C264.584 265.944 266.504 265.24 267.848 263.832C269.256 262.36 269.96 260.44 269.96 258.072C269.96 255 268.968 252.792 266.984 251.448C265.064 250.04 261.96 249.336 257.672 249.336H254.6V235.992H257.672C260.936 235.992 263.56 235.448 265.544 234.36C267.592 233.208 268.616 231.192 268.616 228.312C268.616 226.008 267.976 224.216 266.696 222.936C265.416 221.656 263.656 221.016 261.416 221.016C258.984 221.016 257.16 221.752 255.944 223.224C254.792 224.696 254.12 226.52 253.928 228.696H237.896ZM293.717 224.184V208.92H320.309V279H303.221V224.184H293.717Z" fill="white"/>
<path d="M333 84C333 78.4772 337.477 74 343 74C348.523 74 353 78.4772 353 84V104C353 109.523 348.523 114 343 114C337.477 114 333 109.523 333 104V84Z" fill="url(#paint3_linear_0_1)"/>
<path d="M210 84C210 78.4772 214.477 74 220 74C225.523 74 230 78.4772 230 84V104C230 109.523 225.523 114 220 114C214.477 114 210 109.523 210 104V84Z" fill="url(#paint4_linear_0_1)"/>
<path d="M271 84C271 78.4772 275.477 74 281 74C286.523 74 291 78.4772 291 84V104C291 109.523 286.523 114 281 114C275.477 114 271 109.523 271 104V84Z" fill="url(#paint5_linear_0_1)"/>
<defs>
<filter id="filter0_d_0_1" x="150" y="79" width="251" height="342" filterUnits="userSpaceOnUse" color-interpolation-filters="sRGB">
<feFlood flood-opacity="0" result="BackgroundImageFix"/>
<feColorMatrix in="SourceAlpha" type="matrix" values="0 0 0 0 0 0 0 0 0 0 0 0 0 0 0 0 0 0 127 0" result="hardAlpha"/>
<feOffset dx="-5" dy="5"/>
<feGaussianBlur stdDeviation="10"/>
<feComposite in2="hardAlpha" operator="out"/>
<feColorMatrix type="matrix" values="0 0 0 0 0 0 0 0 0 0 0 0 0 0 0 0 0 0 0.25 0"/>
<feBlend mode="normal" in2="BackgroundImageFix" result="effect1_dropShadow_0_1"/>
<feBlend mode="normal" in="SourceGraphic" in2="effect1_dropShadow_0_1" result="shape"/>
</filter>
<filter id="filter1_d_0_1" x="150" y="79" width="251" height="90" filterUnits="userSpaceOnUse" color-interpolation-filters="sRGB">
<feFlood flood-opacity="0" result="BackgroundImageFix"/>
<feColorMatrix in="SourceAlpha" type="matrix" values="0 0 0 0 0 0 0 0 0 0 0 0 0 0 0 0 0 0 127 0" result="hardAlpha"/>
<feOffset dx="-5" dy="5"/>
<feGaussianBlur stdDeviation="10"/>
<feComposite in2="hardAlpha" operator="out"/>
<feColorMatrix type="matrix" values="0 0 0 0 0 0 0 0 0 0 0 0 0 0 0 0 0 0 0.25 0"/>
<feBlend mode="normal" in2="BackgroundImageFix" result="effect1_dropShadow_0_1"/>
<feBlend mode="normal" in="SourceGraphic" in2="effect1_dropShadow_0_1" result="shape"/>
</filter>
<linearGradient id="paint0_linear_0_1" x1="254.5" y1="51" x2="320" y2="353" gradientUnits="userSpaceOnUse">
<stop stop-color="#E365D6"/>
<stop offset="1" stop-color="#FF87F3"/>
</linearGradient>
<linearGradient id="paint1_linear_0_1" x1="280.5" y1="94" x2="346" y2="396" gradientUnits="userSpaceOnUse">
<stop stop-color="#FF00E5"/>
<stop offset="1" stop-color="#FF5DEF"/>
</linearGradient>
<linearGradient id="paint2_linear_0_1" x1="280.5" y1="94" x2="282.377" y2="146.285" gradientUnits="userSpaceOnUse">
<stop stop-color="#FF00E5"/>
<stop offset="1" stop-color="#FF5DEF"/>
</linearGradient>
<linearGradient id="paint3_linear_0_1" x1="346.223" y1="64.4636" x2="357.848" y2="102.822" gradientUnits="userSpaceOnUse">
<stop stop-color="#E365D6"/>
<stop offset="1" stop-color="#FF87F3"/>
</linearGradient>
<linearGradient id="paint4_linear_0_1" x1="223.223" y1="64.4636" x2="234.848" y2="102.822" gradientUnits="userSpaceOnUse">
<stop stop-color="#E365D6"/>
<stop offset="1" stop-color="#FF87F3"/>
</linearGradient>
<linearGradient id="paint5_linear_0_1" x1="284.223" y1="64.4636" x2="295.848" y2="102.822" gradientUnits="userSpaceOnUse">
<stop stop-color="#E365D6"/>
<stop offset="1" stop-color="#FF87F3"/>
</linearGradient>
</defs>
</svg>
